PathFileType	4	(X/Y/Z)	/home/abdul/Desktop/myosuite/custom_workspace/IK/output/S5_12_3.trc
DataRate	CameraRate	NumFrames	NumMarkers	Units	OrigDataRate	OrigDataStartFrame	OrigNumFrames
200.0	200.0	22	3	mm	200.0	338	1350
Frame#	Time	V_Shoulder			V_Elbow			V_Wrist		
		X1	Y1	Z1	X2	Y2	Z2	X3	Y3	Z3

338	1.685	-4.713582788317634	732.5635741656438	246.14500469521013	-155.3219173495454	541.4410642219889	53.469085803975204	1.618628485685388	432.16191279427255	206.8509154847746
339	1.69	-4.675119934381026	732.9398451340463	246.23720596656543	-154.93586544924418	540.9259874647709	54.500301316666715	2.270960102227722	434.1441661687734	209.4523622124392
340	1.695	-4.634056196274311	733.3187858282791	246.32984327668828	-154.5358508013991	540.4023584819015	55.5410103962507	2.9147416064959764	436.11878774101285	212.02551101560329
341	1.7	-4.590438619119957	733.700108556949	246.42285602568896	-154.12231181766688	539.8706180423935	56.59056424163905	3.5498379602338694	438.0851523502016	214.56921556908526
342	1.705	-4.544317853667503	734.0835235184368	246.51618321227102	-153.6957047163689	539.3312190483708	57.648299880963485	4.176133393318157	440.04266832217377	217.08238029510568
343	1.71	-4.4957480624504225	734.4687394045201	246.6097635064036	-153.256502397181	538.7846255937204	58.71354125023054	4.793530881367458	441.99077728426084	219.56396068243998
344	1.715	-4.444786819001875	734.8554640036409	246.70353532249624	-152.80519328657036	538.2313120074439	59.785600301106044	5.401951574316129	443.928953853722	222.01296350551627
345	1.72	-4.3914950004045314	735.2434048020455	246.7974368929949	-152.34228015750128	537.6717618845801	60.86377813538558	6.0013341800358475	445.85670520400987	224.42844694817893
346	1.725	-4.335936673465012	735.6322695810455	246.8914063423155	-151.86827892694976	537.1064671075043	61.94736616366097	6.59163430719647	447.77357051364487	226.80952063694653
347	1.73	-4.278178974817838	736.0217670086649	246.98538176103318	-151.38371743477512	536.5359268603295	63.03564728565019	7.172823771641772	449.67912030293434	229.15534558866153
348	1.735	-4.218291985277069	736.4116072239727	247.07930128024236	-150.88913420749213	535.9606466390558	64.12789708962067	7.744889870615054	451.5729556642071	231.4651340774678
349	1.74	-4.156348598765983	736.8015024124262	247.17310314600377	-150.38507721047222	535.3811372600127	65.22338506830211	8.307834629204608	453.45470739163966	233.7381494260548
350	1.745	-4.092424386166173	737.1911673705986	247.26672579379283	-149.87210259207603	534.7979138690428	66.32137584865575	8.861674023390092	455.32403501712264	235.97370572607957
351	1.75	-4.0265974544373435	737.5803200586985	247.3601079228638	-149.35077342318496	534.2114949537655	67.42113043284219	9.406437184058309	457.1806257589541	238.1711674926184
352	1.755	-3.958948301367838	737.9686821393448	247.45318857044285	-148.82165843555103	533.6224013611459	68.52190744770867	9.942165586321703	459.02419339045053	240.3299492574148
353	1.76	-3.889559666323495	738.355979501113	247.54590718566487	-148.28533076233106	533.03115532248	69.6229644001007	10.468912228415519	460.85447703583463	242.44951510557397
354	1.765	-3.8185163773687822	738.7419427654262	247.63820370316498	-147.74236668410617	532.4382794877856	70.72355893529028	10.986740804371076	462.6712399009897	244.52937816021705
355	1.77	-3.7459051951394127	739.1263077754273	247.7300186162378	-147.1933443836155	531.8442959714689	71.82295009580537	11.495724874564097	464.474267946864	246.56910001944638
356	1.775	-3.6718146538496117	739.5088160655405	247.82129304947694	-146.63884271235227	531.2497254110135	72.9203995779416	11.99594703811923	466.2633685134655	248.56829014979024
357	1.78	-3.596334899820119	739.8892153104935	247.91196883080477	-146.07943997208304	530.6550860403196	74.01517298323853	12.487498111016468	468.03836890250113	250.52660524009463
358	1.785	-3.519557527914651	740.2672597526557	248.00198856280542	-145.5157127142567	530.0608927791993	75.10654106220858	12.970476313592792	469.79911492679753	252.4437485196137
359	1.79	-3.441575416273075	740.6427106066229	248.09129569327038	-144.94823456016826	529.4676563404169	76.1937809476164	13.444986470964864	471.54546943467494	254.31946904381905
